HIERARCHY
ROOT root
{
	OFFSET 0.000000 0.000000 0.000000
	CHANNELS 6 Xposition Yposition Zposition Zrotation Yrotation Xrotation
	JOINT lhip
	{
		OFFSET 0.058581 -0.082280 -0.017664
		CHANNELS 3 Zrotation Yrotation Xrotation
		JOINT lknee
		{
			OFFSET 0.043451 -0.386469 0.008037
			CHANNELS 3 Zrotation Yrotation Xrotation
			JOINT lankle
			{
				OFFSET -0.014790 -0.426874 -0.037428
				CHANNELS 3 Zrotation Yrotation Xrotation
				JOINT ltoe
				{
					OFFSET 0.041054 -0.060286 0.122042
					CHANNELS 3 Zrotation Yrotation Xrotation
					End Site
					{
						OFFSET 0.000000 0.000000 0.000000
					}
				}
			}
		}
	}
	JOINT rhip
	{
		OFFSET -0.060310 -0.090513 -0.013543
		CHANNELS 3 Zrotation Yrotation Xrotation
		JOINT rknee
		{
			OFFSET -0.043257 -0.383688 -0.004843
			CHANNELS 3 Zrotation Yrotation Xrotation
			JOINT rankle
			{
				OFFSET 0.019056 -0.420046 -0.034562
				CHANNELS 3 Zrotation Yrotation Xrotation
				JOINT rtoe
				{
					OFFSET -0.034840 -0.062106 0.130323
					CHANNELS 3 Zrotation Yrotation Xrotation
					End Site
					{
						OFFSET 0.000000 0.000000 0.000000
					}
				}
			}
		}
	}
	JOINT lowerback
	{
		OFFSET 0.004439 0.124404 -0.038385
		CHANNELS 3 Zrotation Yrotation Xrotation
		JOINT upperback
		{
			OFFSET 0.004488 0.137956 0.026820
			CHANNELS 3 Zrotation Yrotation Xrotation
			JOINT chest
			{
				OFFSET -0.002265 0.056032 0.002855
				CHANNELS 3 Zrotation Yrotation Xrotation
				JOINT lowerneck
				{
					OFFSET -0.013390 0.211636 -0.033468
					CHANNELS 3 Zrotation Yrotation Xrotation
					JOINT upperneck
					{
						OFFSET 0.010113 0.088937 0.050410
						CHANNELS 3 Zrotation Yrotation Xrotation
						End Site
						{
							OFFSET 0.000000 0.000000 0.000000
						}
					}
				}
				JOINT lclavicle
				{
					OFFSET 0.071702 0.114000 -0.018898
					CHANNELS 3 Zrotation Yrotation Xrotation
					JOINT lshoulder
					{
						OFFSET 0.122921 0.045205 -0.019046
						CHANNELS 3 Zrotation Yrotation Xrotation
						JOINT lelbow
						{
							OFFSET 0.255332 -0.015649 -0.022946
							CHANNELS 3 Zrotation Yrotation Xrotation
							JOINT lwrist
							{
								OFFSET 0.265709 0.012698 -0.007375
								CHANNELS 3 Zrotation Yrotation Xrotation
								End Site
								{
									OFFSET 0.000000 0.000000 0.000000
								}
							}
						}
					}
				}
				JOINT rclavicle
				{
					OFFSET -0.082954 0.112472 -0.023707
					CHANNELS 3 Zrotation Yrotation Xrotation
					JOINT rshoulder
					{
						OFFSET -0.113228 0.046853 -0.008472
						CHANNELS 3 Zrotation Yrotation Xrotation
						JOINT relbow
						{
							OFFSET -0.260127 -0.014369 -0.031269
							CHANNELS 3 Zrotation Yrotation Xrotation
							JOINT rwrist
							{
								OFFSET -0.269108 0.006794 -0.006027
								CHANNELS 3 Zrotation Yrotation Xrotation
								End Site
								{
									OFFSET 0.000000 0.000000 0.000000
								}
							}
						}
					}
				}
			}
		}
	}
}
MOTION
Frames: 16
Frame Time: 0.033333
1.168067 0.172298 0.998155 -91.065178 2.480537 84.566684 -0.194387 1.585761 8.954855 -2.856474 -15.023718 0.156045 5.173977 8.299816 -14.541854 0.000000 -0.000000 0.000000 3.024736 -2.007798 5.033214 3.872679 3.288470 6.822124 4.818194 -1.484167 -8.470410 0.000000 -0.000000 0.000000 -2.293769 0.087354 9.265870 1.533379 -4.094488 4.888693 0.434590 -2.910379 5.352660 3.308047 -5.511644 14.798976 2.816661 -7.884977 11.415047 -25.196560 5.674634 4.353258 -60.812566 -7.751417 6.648508 12.637059 -27.438736 1.146002 -2.913470 -0.248383 -9.385365 22.936811 -3.716408 1.502549 64.508686 0.938220 11.067459 -14.914513 30.018638 -2.538759 7.428840 -1.441636 -8.788278 
1.168201 0.172983 0.997469 -91.177107 2.624982 84.883043 -0.031185 1.357997 8.405327 -2.919131 -14.606936 0.535974 5.271678 8.196506 -14.490395 0.000000 -0.000000 0.000000 3.306382 -1.639344 4.656907 3.860490 3.295489 6.867878 4.703828 -1.801684 -8.375475 0.000000 -0.000000 0.000000 -2.293749 0.015343 8.563616 1.667265 -4.147587 5.250448 0.346141 -2.790300 5.490461 3.566025 -6.179365 14.337679 2.315391 -8.678324 11.660119 -24.976263 5.753475 4.339092 -61.234899 -8.054361 7.028627 12.788509 -27.564143 1.156346 -2.843784 -0.304593 -9.680906 22.952640 -3.619866 1.369914 64.596584 1.207221 11.279245 -15.201439 29.658860 -2.783417 6.808514 -1.100980 -8.819579 
1.167963 0.173219 0.996868 -91.065266 2.862616 85.106777 0.293292 1.162595 7.946983 -3.079739 -14.416331 0.911704 5.189386 8.060003 -14.606287 0.000000 -0.000000 0.000000 3.635881 -1.633177 4.413452 3.877222 3.262034 6.911607 4.498543 -2.027128 -8.439849 0.000000 -0.000000 0.000000 -2.174460 0.215862 7.810933 2.015023 -4.168976 5.941067 0.403139 -3.117800 5.552852 3.412420 -6.743341 13.789895 1.666627 -9.247871 11.578492 -25.288330 5.404763 4.269537 -61.429752 -8.460732 7.189049 12.899938 -27.398507 0.838965 -2.761181 -0.394221 -9.672613 22.902246 -3.613099 1.073628 64.491986 1.569682 11.221998 -15.281246 29.316890 -2.802140 6.320771 -1.097032 -8.314708 
1.167133 0.173677 0.996541 -91.181817 3.135312 85.641569 0.627225 0.880754 7.378491 -3.182197 -14.099532 1.014088 5.361096 8.126559 -14.658760 0.000000 -0.000000 0.000000 4.069327 -1.276142 3.868719 3.849494 3.255172 6.988620 4.276879 -2.322765 -8.526586 0.000000 -0.000000 0.000000 -1.878050 0.052912 7.071934 2.167957 -4.224076 5.786685 0.345568 -3.157008 5.553581 2.973936 -7.463816 14.232780 1.243853 -9.600012 11.350711 -25.649725 5.428572 4.605970 -61.451658 -8.350767 7.326606 12.978863 -27.776555 0.929491 -2.808619 0.062115 -9.301414 22.898814 -3.657650 1.402150 64.281670 1.207505 11.247570 -15.495098 30.000961 -2.820101 6.448193 -1.021671 -8.517924 
1.166889 0.173862 0.996569 -91.256654 3.184248 85.675491 0.687897 0.850030 7.326509 -3.224775 -14.021171 1.070728 5.277484 8.131058 -14.622410 0.000000 -0.000000 0.000000 4.136294 -1.250374 3.815432 3.850175 3.284681 7.060957 4.270621 -2.291410 -8.514347 0.000000 -0.000000 0.000000 -1.826868 -0.002579 7.063045 2.247981 -4.261945 5.729680 0.347289 -3.206719 5.543626 2.887957 -8.060224 14.063783 1.037862 -10.172770 11.261764 -25.719388 5.508816 4.586278 -61.593556 -8.325983 7.438858 13.074613 -27.787877 0.967503 -2.722686 0.029213 -9.438196 22.797331 -3.620375 1.315413 64.362846 1.146705 11.243734 -15.586640 29.892487 -2.927039 6.354456 -1.021697 -8.609889 
1.166733 0.174200 0.996177 -91.306980 3.244379 85.736687 0.757757 0.714349 7.153717 -3.267416 -13.959567 1.311460 5.299670 8.162421 -14.708106 0.000000 -0.000000 0.000000 4.291124 -1.012325 3.805222 3.783362 3.382115 6.964294 4.142649 -2.480515 -8.572845 0.000000 -0.000000 0.000000 -1.767790 -0.065138 6.977807 2.317220 -4.261334 5.738862 0.298959 -3.294635 5.495179 2.865203 -8.184763 14.078277 1.030497 -10.308247 11.339206 -25.735640 5.508055 4.593605 -61.671543 -8.393959 7.532015 12.987329 -27.767442 1.091705 -2.899207 -0.083158 -9.627902 22.747142 -3.671668 1.284630 64.374225 1.187289 11.266715 -15.522443 29.733092 -2.945017 6.401926 -1.018094 -8.849104 
1.166482 0.174388 0.996032 -91.417087 3.217794 85.896846 0.728843 0.631364 6.967696 -3.309221 -13.819672 1.338630 5.446357 8.383280 -14.771886 0.000000 -0.000000 0.000000 4.236047 -1.090171 3.567207 3.853546 3.447558 7.094726 4.114548 -2.407799 -8.645373 0.000000 -0.000000 0.000000 -1.753069 -0.080281 6.959828 2.341950 -4.289195 5.447682 0.266937 -3.339134 5.445344 2.867388 -8.628998 14.208255 1.097831 -10.566293 11.295687 -25.702552 5.578767 4.668221 -61.730499 -8.310289 7.649309 12.890500 -27.835665 1.278452 -2.816578 0.154037 -9.596304 22.476333 -3.804184 1.222360 64.693238 0.795371 11.355981 -15.368966 29.776852 -2.793526 6.781765 -1.615977 -9.507727 
1.166147 0.174557 0.996041 -91.483994 3.157811 85.881156 0.649154 0.689764 6.968975 -3.268608 -13.810597 1.412210 5.431772 8.309028 -14.674950 0.000000 -0.000000 0.000000 4.204659 -1.033792 3.621928 3.807985 3.410437 7.071048 4.140525 -2.365511 -8.643952 0.000000 -0.000000 0.000000 -1.829668 -0.075935 7.046400 2.388901 -4.338190 5.336018 0.311951 -3.420159 5.371443 2.831827 -9.127113 14.395088 0.950446 -10.992395 11.465420 -25.773991 5.636456 4.688243 -61.725802 -8.400696 7.612926 12.827376 -27.738126 1.323994 -3.167195 0.173611 -9.464445 22.536154 -3.834255 1.247779 64.577766 0.855939 11.304939 -15.303843 29.585999 -2.767761 6.911641 -1.534400 -9.352743 
1.165363 0.174679 0.995967 -91.461613 3.196655 85.842265 0.699950 0.771188 7.094928 -3.228020 -13.878353 1.356279 5.342753 8.278574 -14.752463 0.000000 -0.000000 0.000000 4.252742 -0.948437 3.851570 3.796219 3.289205 6.879405 4.226053 -2.364261 -8.575997 0.000000 -0.000000 0.000000 -1.764932 -0.174255 7.056166 2.368878 -4.406798 5.305890 0.302360 -3.466525 5.457401 2.791946 -9.105793 14.242250 0.893400 -11.126734 11.535579 -25.763906 5.647660 4.726761 -61.725430 -8.487333 7.556024 12.821123 -27.596016 1.228215 -3.246373 0.073751 -9.518226 22.735338 -3.835549 1.159927 64.401649 1.115018 11.231563 -15.198529 29.102301 -2.678390 6.689277 -1.148449 -8.809987 
1.164928 0.174786 0.995875 -91.579529 3.146009 85.766995 0.681983 0.811933 7.242530 -3.274967 -13.930905 1.311719 5.394134 8.320819 -14.727993 0.000000 -0.000000 0.000000 4.172665 -0.905733 3.990277 3.817737 3.331392 6.826186 4.239024 -2.227010 -8.565866 0.000000 -0.000000 0.000000 -1.855102 -0.144538 7.038350 2.412858 -4.488868 5.550069 0.322245 -3.492879 5.399013 2.752074 -9.529188 14.415650 1.001731 -11.538801 11.444346 -25.679899 5.449717 4.888213 -61.746307 -8.553767 7.533097 12.965472 -27.558057 1.072772 -3.309995 -0.035800 -9.703719 22.653523 -3.651877 1.233445 64.540859 1.103304 11.150982 -15.255060 29.095733 -2.675731 7.006211 -1.336989 -9.038991 
1.164881 0.174851 0.995861 -91.578065 3.156774 85.845377 0.668254 0.810154 7.127198 -3.215239 -13.856475 1.363029 5.266025 8.289236 -14.764672 0.000000 -0.000000 0.000000 4.209714 -0.897545 3.946626 3.796775 3.366584 6.756841 4.258543 -2.282492 -8.571942 0.000000 -0.000000 0.000000 -1.873090 -0.175930 7.034958 2.440628 -4.540752 5.486228 0.344960 -3.501559 5.477760 2.869695 -9.711021 14.411595 0.837674 -11.745045 11.632452 -25.737139 5.495160 4.822953 -61.575123 -8.612255 7.578169 12.957123 -27.596403 1.076458 -2.992343 -0.055786 -9.430382 22.783721 -3.669871 1.130083 64.391781 1.144312 11.166990 -15.197807 29.005239 -2.766407 6.644756 -1.105452 -8.805267 
1.164914 0.174830 0.995938 -91.566850 3.179397 85.907548 0.730437 0.850911 6.965779 -3.265428 -13.819065 1.438784 5.311477 8.254634 -14.734802 0.000000 -0.000000 0.000000 4.159486 -1.062884 3.878672 3.904116 3.365259 6.775656 4.288799 -2.144915 -8.489855 0.000000 -0.000000 0.000000 -1.863475 -0.222753 6.941880 2.471154 -4.647591 5.669138 0.318541 -3.477404 5.505096 2.948487 -9.849707 14.173618 0.872565 -12.043266 11.711378 -25.751034 5.471149 4.762812 -61.478558 -8.723201 7.559308 13.063878 -27.537343 0.818554 -2.833816 -0.031806 -9.163537 22.977743 -3.584434 1.028069 64.249200 1.315658 11.102893 -15.177846 28.793365 -2.911211 6.464176 -0.945319 -8.496292 
1.164602 0.175013 0.995845 -91.625932 3.143935 85.944256 0.715663 0.896365 6.948656 -3.295025 -13.805671 1.428236 5.377864 8.230377 -14.690280 0.000000 -0.000000 0.000000 4.122327 -1.214078 3.869725 3.905211 3.516119 6.731720 4.227106 -2.082791 -8.510946 0.000000 -0.000000 0.000000 -1.941883 -0.149802 6.739850 2.509133 -4.725757 5.962265 0.345321 -3.460225 5.544563 3.055633 -10.164066 14.238385 1.052111 -12.302107 11.503665 -25.655751 5.450188 4.718323 -61.425189 -8.829051 7.480999 13.033061 -27.593957 0.752709 -3.115150 0.390207 -9.236489 22.868022 -3.554377 1.007757 64.456485 1.276119 11.069178 -15.236485 28.865358 -2.874029 6.805940 -1.225298 -8.602874 
1.164070 0.175301 0.995836 -91.666202 3.191504 85.900606 0.827684 0.992521 7.031702 -3.337622 -13.841401 1.437921 5.330340 8.215974 -14.752032 0.000000 -0.000000 0.000000 4.199536 -1.249710 4.018265 3.899691 3.546668 6.619616 4.154713 -2.055643 -8.450699 0.000000 -0.000000 0.000000 -1.974913 -0.088798 6.672110 2.533957 -4.749212 6.137963 0.400227 -3.436616 5.470561 2.896309 -9.926340 14.561692 1.078528 -11.997770 11.478198 -25.583341 5.278544 4.866690 -61.358807 -8.840837 7.385169 13.105385 -27.510593 0.659630 -3.124063 0.519018 -9.336606 22.765572 -3.524684 1.132351 64.533651 1.214143 10.982034 -15.202942 28.926738 -2.844533 7.191273 -1.397022 -8.965419 
1.163580 0.175758 0.995869 -91.798580 3.187269 85.836212 0.878759 0.991497 7.226683 -3.329592 -13.774648 1.250915 5.339459 8.272150 -14.734335 0.000000 -0.000000 0.000000 4.267016 -1.046359 4.222128 3.876203 3.626028 6.435302 4.204497 -2.203165 -8.342754 0.000000 -0.000000 0.000000 -2.091283 -0.100688 6.711996 2.575786 -4.727542 6.193892 0.452654 -3.382578 5.626276 3.223129 -10.110803 14.301990 1.137507 -12.265276 11.506040 -25.616787 5.401861 4.628488 -61.144515 -8.927954 7.344867 12.887854 -27.400285 0.710075 -3.223513 0.380931 -9.347754 22.976285 -3.547839 1.023665 64.291897 1.408210 11.030971 -15.258242 28.847533 -2.942783 6.622658 -1.041132 -8.460246 
1.163318 0.175846 0.995924 -91.825395 3.187637 85.870054 0.899815 1.043664 7.210853 -3.348792 -13.814615 1.246926 5.285384 8.226412 -14.690189 0.000000 -0.000000 0.000000 4.313628 -1.031403 4.176521 3.826613 3.663650 6.488780 4.203549 -2.234454 -8.370367 0.000000 -0.000000 0.000000 -2.130941 -0.130200 6.819848 2.592282 -4.707811 6.116461 0.481727 -3.363762 5.631009 3.340019 -10.115033 13.996542 1.152796 -12.324705 11.477695 -25.601560 5.527060 4.583234 -61.038299 -8.863979 7.308697 12.913077 -27.588137 0.742229 -3.278297 0.226739 -9.419858 22.980262 -3.605048 0.904965 64.198135 1.307630 11.095600 -15.155707 28.890880 -2.776069 6.701628 -0.869021 -8.357156 
